<svg width="172" height="20" xmlns="http://www.w3.org/2000/svg"><path d="M9.766 0c1.54 0 2.89.209 4.05.627 1.16.418 2.05 1.007 2.673 1.769.622.76.933 1.648.933 2.66a4.29 4.29 0 01-.88 2.646c-.586.78-1.376 1.323-2.37 1.63 1.155.269 2.082.863 2.78 1.782.699.92 1.048 2.01 1.048 3.273 0 1.124-.322 2.113-.967 2.967-.645.854-1.55 1.509-2.714 1.963-1.164.456-2.525.683-4.083.683H0V0h9.766zM7 8h2.714c.39 0 .7-.093.935-.28A.899.899 0 0011 6.98a.853.853 0 00-.351-.71c-.234-.18-.546-.27-.935-.27H7v2zm-2 7h3.668c.707 0 1.273-.146 1.697-.438.423-.293.635-.672.635-1.137 0-.43-.214-.774-.643-1.035-.43-.26-.992-.39-1.69-.39H5v3zm37-3.626c0 1.721-.386 3.234-1.158 4.54-.772 1.304-1.868 2.312-3.289 3.021-1.42.71-3.081 1.065-4.984 1.065s-3.578-.355-5.026-1.065-2.567-1.717-3.357-3.021c-.79-1.306-1.186-2.819-1.186-4.54V0h6.55v11.374c0 .934.296 1.7.889 2.3.593.6 1.312.9 2.157.9.828 0 1.51-.29 2.048-.872.538-.582.807-1.358.807-2.328V0H42v11.374zM57.567 0c1.511 0 3.018.209 4.52.626 1.502.417 2.806.98 3.913 1.687L63.68 7.21a24.918 24.918 0 00-3.556-1.592c-1.282-.463-2.319-.694-3.11-.694-.792 0-1.188.272-1.188.817 0 .408.25.727.749.959.5.231 1.289.487 2.368.768 1.403.372 2.562.753 3.474 1.143.914.39 1.714.998 2.402 1.823.688.826 1.033 1.928 1.033 3.306 0 1.397-.362 2.563-1.087 3.497-.724.934-1.704 1.628-2.941 2.082-1.237.453-2.611.68-4.122.68-1.71 0-3.434-.272-5.175-.816-1.74-.544-3.25-1.311-4.527-2.3l2.388-4.843c.98.816 2.206 1.526 3.677 2.13 1.471.602 2.701.904 3.69.904 1.035 0 1.552-.336 1.552-1.007 0-.426-.254-.755-.762-.986-.508-.232-1.325-.488-2.449-.77-1.367-.335-2.51-.688-3.427-1.06a6.1 6.1 0 01-2.382-1.742c-.67-.789-1.005-1.841-1.005-3.156 0-1.28.34-2.397 1.019-3.354.679-.957 1.646-1.696 2.9-2.218C54.457.261 55.912 0 57.568 0zM71 20V0h7v20h-7zm26.593 0L89.897 9.791V20H84V0h5.42l7.723 10.279V0H103v20h-5.407zm18.97-14.972v2.451h9.251v5.014h-9.251v2.493H127V20h-17V0h16.752v5.028h-10.189zM140.567 0c1.511 0 3.018.209 4.52.626 1.502.417 2.807.98 3.913 1.687l-2.321 4.898a24.88 24.88 0 00-3.555-1.592c-1.282-.463-2.319-.694-3.111-.694-.791 0-1.187.272-1.187.817 0 .408.25.727.749.959.499.231 1.289.487 2.368.768 1.403.372 2.561.753 3.475 1.143.913.39 1.713.998 2.401 1.823.689.826 1.033 1.928 1.033 3.306 0 1.397-.362 2.563-1.087 3.497-.724.934-1.704 1.628-2.941 2.082-1.237.453-2.611.68-4.122.68-1.71 0-3.434-.272-5.175-.816-1.741-.544-3.25-1.311-4.527-2.3l2.388-4.843c.981.816 2.206 1.526 3.677 2.13 1.471.602 2.701.904 3.691.904 1.034 0 1.551-.336 1.551-1.007 0-.426-.254-.755-.762-.986-.508-.232-1.325-.488-2.449-.77-1.367-.335-2.51-.688-3.427-1.06a6.097 6.097 0 01-2.382-1.742c-.67-.789-1.005-1.841-1.005-3.156 0-1.28.339-2.397 1.019-3.354.679-.957 1.646-1.696 2.901-2.218 1.255-.521 2.71-.782 4.365-.782zm23 0c1.511 0 3.018.209 4.52.626 1.502.417 2.807.98 3.913 1.687l-2.321 4.898a24.88 24.88 0 00-3.555-1.592c-1.282-.463-2.319-.694-3.111-.694-.791 0-1.187.272-1.187.817 0 .408.25.727.749.959.499.231 1.289.487 2.368.768 1.403.372 2.561.753 3.475 1.143.913.39 1.713.998 2.401 1.823.689.826 1.033 1.928 1.033 3.306 0 1.397-.362 2.563-1.087 3.497-.724.934-1.704 1.628-2.941 2.082-1.237.453-2.611.68-4.122.68-1.71 0-3.434-.272-5.175-.816-1.741-.544-3.25-1.311-4.527-2.3l2.388-4.843c.981.816 2.206 1.526 3.677 2.13 1.471.602 2.701.904 3.691.904 1.034 0 1.551-.336 1.551-1.007 0-.426-.254-.755-.762-.986-.508-.232-1.325-.488-2.449-.77-1.367-.335-2.51-.688-3.427-1.06a6.097 6.097 0 01-2.382-1.742c-.67-.789-1.005-1.841-1.005-3.156 0-1.28.339-2.397 1.019-3.354.679-.957 1.646-1.696 2.901-2.218 1.255-.521 2.71-.782 4.365-.782z" fill="#007397"/></svg>