<svg width="28" height="28" xmlns="http://www.w3.org/2000/svg"><g fill="#007397" fill-rule="evenodd"><path d="M13.848 1.205c-6.965 0-12.63 5.604-12.63 12.494s5.665 12.495 12.63 12.495c6.964 0 12.632-5.605 12.632-12.495 0-6.89-5.668-12.494-12.632-12.494m0 26.193C6.212 27.398 0 21.253 0 13.7 0 6.146 6.212 0 13.848 0c7.636 0 13.849 6.146 13.849 13.7 0 7.553-6.212 13.698-13.85 13.698"/><path d="M13.848 1.205c-3.887 0-7.05 5.604-7.05 12.494s3.163 12.495 7.05 12.495c3.886 0 7.047-5.605 7.047-12.495 0-6.89-3.161-12.494-7.047-12.494m0 26.193c-4.56 0-8.267-6.145-8.267-13.699C5.58 6.146 9.289 0 13.848 0c4.558 0 8.265 6.146 8.265 13.7 0 7.553-3.707 13.698-8.265 13.698"/><path d="M14.456 1.219V26.18c6.684-.315 12.024-5.792 12.024-12.48 0-6.688-5.34-12.165-12.023-12.48m-.608 26.179a.605.605 0 01-.609-.602V.602c0-.332.273-.602.609-.602 7.636 0 13.849 6.146 13.849 13.699s-6.213 13.699-13.85 13.699"/><path d="M1.897 17.713h23.9a12.28 12.28 0 00.683-4.014c0-1.355-.23-2.703-.685-4.015H1.9a12.237 12.237 0 00-.682 4.015c0 1.356.228 2.705.68 4.014m24.327 1.204H1.468a.608.608 0 01-.57-.39A13.528 13.528 0 010 13.7c0-1.64.303-3.265.902-4.83a.608.608 0 01.57-.39h24.752a.61.61 0 01.57.39c.598 1.57.903 3.196.903 4.83 0 1.636-.305 3.26-.903 4.83a.61.61 0 01-.57.388"/></g></svg>